<svg xmlns="http://www.w3.org/2000/svg" width="19" height="19" viewBox="0 0 19 19">
    <g fill="none" fill-rule="evenodd">
        <g fill="#FEDC5A" fill-rule="nonzero">
            <g>
                <g>
                    <g>
                        <path d="M9.353.22l2.568 5.185 5.742.831c.148.022.271.126.318.268.046.142.007.298-.1.402l-4.154 4.035.98 5.7c.027.146-.034.295-.155.383-.122.088-.283.1-.416.03l-5.135-2.69-5.136 2.69c-.133.07-.294.059-.416-.029-.121-.088-.182-.236-.156-.383l.981-5.7L.119 6.905c-.107-.104-.146-.26-.1-.402.047-.142.17-.246.318-.268l5.742-.831L8.649.219C8.713.085 8.85 0 9 0c.15 0 .286.085.352.22z" transform="translate(-266 -912) translate(0 809.1) translate(220.5 103.5) translate(45.9)"/>
                    </g>
                </g>
            </g>
        </g>
    </g>
</svg>
